<?xml version="1.0" encoding="UTF-8"?> <svg xmlns="http://www.w3.org/2000/svg" width="321" height="79.375" viewBox="0 0 321 79.375"> <metadata> <?xpacket begin="﻿" id="W5M0MpCehiHzreSzNTczkc9d"?> <?xpacket end="w"?> </metadata> <defs> <style> .cls-1 { fill-rule: evenodd; } </style> </defs> <path class="cls-1" d="M1235.53,250.272a7.729,7.729,0,0,1,3.66.341,2.34,2.34,0,0,1-1.27,2.884c-9.99,6.269-23.38,5.768-31.71,14.842a22.415,22.415,0,0,0,8.94-.391c5.46-1.693,11.24-.2,16.78-1.372,7.23-1.753,14.72-.851,22.07-0.992v1.322c-4.6.091-9.21,0.031-13.81,0.091-4.46-.02-8.7,1.8-13.19,1.572-6.72-.19-13.33,1.122-20.02,1.452-4.93-.03-8.36,3.936-12.01,6.66-7.05,5.318-13.52,11.477-21.25,15.833-12.29,7.15-26.55,9.494-40.33,12.088-12.15,1.832-24.26,4.256-36.52,5.157-10.21,2.384-20.8,2-31.1,3.716,0.32-.251.95-0.761,1.28-1.022,1.16-.461,2.34-0.911,3.53-1.322a48.8,48.8,0,0,0,11.27.321c3.05-2.023,6.74-.651,10.06-1.372,8.39-2.634,17.37-2.083,25.85-4.407,17.42-3.154,35.48-4.977,51.71-12.518,10.69-5.588,19.93-13.55,28.79-21.642a27.692,27.692,0,0,0-8.86.491c-5.39,1.322-11.12,1.312-16.21,3.745-11.55,5.358-23.14,10.7-34.21,16.985a21.658,21.658,0,0,1-6.83,2.213,31.636,31.636,0,0,1-4.61,3.476c-2.99,1.822-6.63-2.124-9.36.44a20.22,20.22,0,0,1-18.44,4.627c-2.68.841-5.58,3.615-8.41,1.963-2.89-1.953-6.37-.371-9.56-1.082-1.99,1.242-3.96,2.5-5.94,3.756l-0.71-.231c-0.9-.761-1.81-1.522-2.71-2.273q-2.625,1.276-5.26,2.524c-3.37-2.414-6.91,4.016-9.27-.1-1.64-5.258,2.61-9.785,5.72-13.47a77.178,77.178,0,0,0-14.46,3.3,29.038,29.038,0,0,0-1.9,12.718c-2.28-2.593-1.84-6.079-1.96-9.253-2.24,1.923-4.12,4.937-7.28,5.278-1.89-1.112-2.85-3.2-4.04-4.958-8.07-.34-12.89,6.981-19.43,10.355-1.32-1.612-2.56-3.284-3.74-5.007-15.775,5.068-31.994,8.723-47.733,13.931-8.064,2.513-16.389,4.336-24.023,8.031-1.891,1.032-4.053.361-6.034,0.1,10.766-4.466,22.163-7.15,33.209-10.825,6.133-2.083,12.5-3.375,18.63-5.468,8.735-2.885,17.8-4.647,26.511-7.6a8.03,8.03,0,0,1,2.84-6.21c-0.22,2-.48,4-0.74,6,5.71-2.073,12.4-2.353,17.03-6.71,2.65-2.363,5.56-4.8,6.61-8.332,2.7-7.711,4.64-16.163,10.62-22.132,1.1,2.043,3,4.106,2.47,6.629-1.92,9.765-11.83,15.022-14.24,24.546,3.37-.881,6.9-1.141,10.21-2.223,2.57-1.562,3.34-4.757,4.51-7.341,3.28-8.722,8.33-16.844,15.48-22.9,0.25,0.43.76,1.292,1.03,1.722-6.52,8.493-12.69,17.346-17.23,27.07,0.28,0.04.85,0.14,1.13,0.19,11.4-2.413,22.74-5.2,34.22-7.371a243.068,243.068,0,0,1,24.57-4.406c12.32-3.175,25.01-4.346,37.51-6.53,5.71-1.041,11.44-3.124,17.31-2.2,4.09-2.493,9.06-1.562,13.44-3.1,9.78-3.285,19.29-7.451,29.39-9.7C1217.69,260.337,1225.52,252.626,1235.53,250.272ZM1189.4,269.44c6.63,2.574,14.26.07,18.81-5.258C1201.66,264.623,1195.72,267.868,1189.4,269.44Zm-149.72,19.118c4.15-4.466,8.71-9.674,8.73-16.124l-1.24-1.241C1043.35,276.25,1041.53,282.569,1039.68,288.558Zm108.08-10.335a11.619,11.619,0,0,1-4.81,1.372c-9.82,1.112-19.36,3.766-29.21,4.677a95.846,95.846,0,0,1-18.03,3.064c-4.67,1.993-9.89,2.083-14.82,3.2-4.01,1.642-8.45,1.663-12.53,3.145,0.44,0.45,1.33,1.362,1.77,1.822-1.22,3.435-2.21,6.95-3.21,10.456,3.07-1.422,5.09-4.076,7.09-6.67,3.13-.2.87,3.815,1,5.558,1.39-.02,2.94-0.06,4.04-1.062,2.19-1.782,2.67-5.448,6.01-5.6,0.15,1.6-1.4,3.866.51,4.887,2.17-1.6,3.86-3.845,6.36-4.967a42.923,42.923,0,0,0,.1,5.438c6.19,0.21,9.58-5.889,14.78-8.182,1.45,0.861,2.91,1.723,4.37,2.564,0.03,0.691.08,2.073,0.1,2.764,6.94-4.126,13.32-9.234,20.74-12.558,0.67,1.422,1.31,2.844,1.97,4.286,7.52-3.185,14.57-7.331,21.96-10.776,3.49-1.873,7.48-2.974,10.45-5.678C1160.13,276.27,1154.05,278.113,1147.76,278.223Zm-20.56,15.433c-0.42,1.652.17,2.2,1.76,1.642C1129.37,293.636,1128.78,293.1,1127.2,293.656Zm-97.03,7.2c3.06,0.581,4.42-2.1,5.69-4.246C1033.01,296.36,1031.37,298.643,1030.17,300.856Zm29.47,7.251a11.957,11.957,0,0,0,5.34-5.348c-0.27-.941-0.55-1.883-0.82-2.834,1.47-1.142,3.84-2.143,2.06-4.276C1062.08,298.352,1058.11,302.739,1059.64,308.107Zm42.65-6.269c1.48-.01,2.95-0.07,4.42-0.131-0.07-.691-0.21-2.083-0.28-2.774Q1104.33,300.331,1102.29,301.838Zm-66.41-.191c0.91,1.132,1.84,2.274,2.76,3.405,2.21-1.662,4.43-3.425,5.77-5.908C1041.25,298.6,1038.5,300.115,1035.88,301.647Zm-20.37,3.5c-0.91.922-1.82,1.833-2.75,2.744,0.56,0.461,1.66,1.362,2.21,1.823a17.752,17.752,0,0,0,6.6-4.737C1019.55,305,1017.53,305.082,1015.51,305.152Z" transform="translate(-933 -250.156)"></path> </svg> 